<?xml version="1.0" encoding="UTF-8" standalone="no"?>
<!-- Created with Inkscape (http://www.inkscape.org/) -->

<svg
   version="1.1"
   id="svg2"
   width="2000"
   height="2000"
   viewBox="0 0 2000 2000"
   sodipodi:docname="gear.svg"
   inkscape:version="1.2.1 (9c6d41e, 2022-07-14)"
   inkscape:export-filename="gear.png"
   inkscape:export-xdpi="1.92"
   inkscape:export-ydpi="1.92"
   xmlns:inkscape="http://www.inkscape.org/namespaces/inkscape"
   xmlns:sodipodi="http://sodipodi.sourceforge.net/DTD/sodipodi-0.dtd"
   xmlns="http://www.w3.org/2000/svg"
   xmlns:svg="http://www.w3.org/2000/svg">
  <defs
     id="defs6" />
  <sodipodi:namedview
     id="namedview4"
     pagecolor="#ffffff"
     bordercolor="#666666"
     borderopacity="1.0"
     inkscape:showpageshadow="2"
     inkscape:pageopacity="0.0"
     inkscape:pagecheckerboard="true"
     inkscape:deskcolor="#d1d1d1"
     showgrid="false"
     inkscape:zoom="0.214"
     inkscape:cx="275.70094"
     inkscape:cy="1766.3552"
     inkscape:window-width="1920"
     inkscape:window-height="1052"
     inkscape:window-x="0"
     inkscape:window-y="0"
     inkscape:window-maximized="1"
     inkscape:current-layer="g8" />
  <g
     inkscape:groupmode="layer"
     inkscape:label="Image"
     id="g8">
    <path
       style="fill:#c6c6c6;fill-opacity:1;stroke:#000000;stroke-width:36.236;stroke-dasharray:none;stroke-opacity:1"
       d="m 815.34716,270.96598 c 30.51119,-17.52097 -12.51417,7.14191 -39.73951,10.78235 -39.66004,11.01616 -76.7675,28.67714 -113.6735,45.59231 -12.60482,5.77702 -24.97305,12.71942 -36.96699,19.71542 l -11.0901,6.46923 c -0.85486,0.50737 -2.24482,1.93152 -3.38895,1.69493 -2.35849,-0.48796 -5.99142,-5.83801 -7.70114,-7.54773 l -22.1802,-22.1802 -53.60214,-53.60213 c -11.93756,-11.93757 -22.96574,-24.60616 -39.73951,-29.26585 -15.4559,-4.29279 -32.82854,-1.52673 -46.20874,7.3934 -11.06052,7.37399 -20.19691,18.96499 -29.57359,28.34167 L 284.87085,404.97132 c -18.46779,18.46779 -44.42046,36.7914 -47.13292,64.69224 -2.69859,27.75481 15.15277,44.72636 33.2703,62.84388 l 50.82961,50.8296 22.18019,22.1802 c 2.03966,2.03965 6.97475,5.3713 7.54774,8.31757 0.74488,3.8344 -5.66612,10.58827 -7.3934,13.86262 -7.14664,13.54009 -14.73782,26.85929 -21.25602,40.66369 -13.89774,29.43035 -28.01451,60.74046 -36.81358,92.41748 -2.84091,10.22784 -6.39991,20.26992 -9.24175,30.49776 -2.15887,7.77324 -3.21058,16.54735 -6.16054,24.02855 -1.86869,4.73917 -6.57643,3.6967 -10.78235,3.6967 h -31.42194 -77.63068 c -17.09456,0 -33.47167,-1.56278 -48.98127,6.62356 -15.921677,8.40259 -26.01446,25.68559 -27.725237,43.28187 -0.879509,9.04675 0,18.62952 0,27.72525 v 173.74481 44.3604 c 0,11.9311 -0.454029,24.047 4.774906,35.1187 2.110612,4.473 4.800931,9.214 8.16354,12.9384 18.845681,20.8771 42.541981,19.4077 68.388931,19.4077 h 60.99553 37.89117 c 3.47675,0 11.25645,-1.5064 13.40053,1.8483 2.718,4.2512 3.11632,11.774 4.46654,16.6352 3.36307,12.1067 7.1069,24.0932 11.0901,36.0428 11.71022,35.1279 25.97116,68.888 42.35862,101.6592 6.09401,12.1899 12.62238,24.1302 19.40767,36.0428 1.5406,2.7079 7.51632,9.8795 6.62264,12.9385 -0.87704,3.0035 -5.53026,6.1457 -7.70115,8.3176 l -19.40767,19.4076 -57.29883,57.2989 c -13.48833,13.4837 -27.62081,26.1171 -29.5736,46.2087 -3.12833,32.1705 20.90391,51.4026 41.58787,72.0856 l 109.05262,109.0526 32.34612,32.3462 c 7.68174,7.6799 15.32189,16.0436 24.95272,21.256 17.52697,9.4913 40.58051,8.7612 57.29883,-2.1533 10.74446,-7.0145 19.60267,-18.3726 28.64942,-27.4203 l 46.20874,-46.2087 24.02854,-24.0286 c 2.04797,-2.0517 6.08662,-7.9387 9.24175,-7.8555 3.54975,0.1017 8.90442,5.0922 12.01427,6.7742 11.96621,6.4877 23.74482,13.6039 36.04282,19.4077 34.37006,16.2377 70.18922,31.7731 107.20427,42.0499 11.77121,3.2716 23.27996,7.2086 35.11864,10.166 4.53123,1.1367 9.21957,3.022 13.86262,3.3917 v 114.5977 c 0,21.0342 -2.11913,42.3734 11.39785,60.0713 18.8929,24.7309 48.7918,21.256 76.39875,21.256 H 1084.282 c 25.6273,0 56.0698,4.7688 76.7066,-13.8626 9.0107,-8.142 16.3671,-21.0434 17.5593,-33.2703 0.8502,-8.7427 0,-18.0121 0,-26.801 v -73.0098 -36.0429 c 0,-3.5858 -1.3493,-10.1659 1.8483,-12.6334 3.1792,-2.4491 9.1401,-2.5323 12.9385,-3.6967 12.5226,-3.8261 25.2669,-7.2733 37.8912,-10.7759 36.1537,-10.0458 72.178,-25.7752 105.3559,-42.3642 11.7832,-5.887 23.6958,-11.968 35.1186,-18.6313 2.6154,-1.5249 8.9368,-7.1994 12.0143,-6.4693 2.9111,0.6839 6.2567,5.6375 8.3176,7.6984 l 21.256,21.256 51.7538,51.7538 c 18.1138,18.1138 35.0909,35.9689 62.8439,33.2703 27.8731,-2.7078 46.2641,-28.7049 64.6922,-47.1329 l 126.6119,-126.6119 c 9.3804,-9.3804 20.9696,-18.5113 28.3445,-29.5736 8.8998,-13.3544 11.6538,-30.849 7.3934,-46.2088 -4.6671,-16.7738 -17.3283,-27.7992 -29.2686,-39.7395 l -53.6022,-53.6021 -22.1802,-22.1802 c -1.876,-1.8761 -6.996,-5.351 -7.5505,-8.0126 -0.2125,-1.0351 1.2477,-2.3105 1.7005,-3.0775 l 6.4692,-11.0901 c 7.7169,-13.2434 14.5835,-27.0229 21.4039,-40.6637 16.0807,-32.1613 31.4035,-66.633 41.1258,-101.6592 4.3251,-15.5539 12.2823,-31.9303 13.5576,-48.0571 h 114.5977 c 21.0342,0 42.3734,2.1163 60.0714,-11.3951 24.2596,-18.5389 21.256,-47.4194 21.256,-74.5532 V 921.58501 887.39054 c 0,-16.30429 -0.1664,-31.21493 -9.5467,-45.28456 -8.0034,-12.00688 -23.0767,-21.69408 -37.5862,-23.10437 -8.447,-0.82067 -17.3838,0 -25.8769,0 h -82.2516 -27.7252 c -3.0036,0 -8.4193,1.04247 -11.0901,-0.46209 -3.7337,-2.10157 -3.8908,-9.67796 -4.9259,-13.40053 -3.6227,-13.02348 -7.4211,-25.95268 -11.7093,-38.81534 -12.0789,-36.24984 -26.6624,-71.50895 -43.5933,-105.35593 -5.7853,-11.57251 -12.4394,-22.74301 -18.4835,-34.19446 -1.9223,-3.65142 -6.2936,-7.94513 -7.0792,-12.01428 -0.6654,-3.41667 5.9425,-7.94975 8.1605,-10.16592 l 25.8769,-25.87689 48.0571,-48.05708 c 8.8628,-8.86653 19.7958,-17.42439 25.7198,-28.64942 11.3581,-21.51756 7.0237,-47.77151 -9.0847,-65.61641 -15.6925,-17.38095 -33.3442,-33.34422 -49.9054,-49.90543 L 1590.7298,285.75278 c -19.1489,-19.15075 -40.6174,-48.25394 -71.1614,-45.28457 -11.3489,1.10347 -22.2449,4.38983 -31.422,11.39785 -8.4099,6.42579 -15.6185,15.31265 -23.1043,22.79662 l -48.9813,48.98126 -24.9527,24.95272 c -3.0221,3.01743 -5.656,7.77231 -10.1659,5.39071 -12.5596,-6.6291 -24.4445,-14.33857 -36.967,-20.94734 -34.0928,-17.99461 -70.265,-33.12612 -107.2043,-45.4389 -14.0659,-4.68834 -28.1688,-9.50606 -42.512,-13.09279 -3.8816,-0.97038 -13.0401,-1.59235 -15.2489,-5.39071 -1.5249,-2.62188 -0.4621,-8.12627 -0.4621,-11.09009 v -27.72525 -82.25155 c 0,-8.48892 0.8225,-17.43364 0,-25.8769 -1.414,-14.55732 -11.0439,-29.54346 -23.1044,-37.583042 -14.0659,-9.379967 -28.9821,-9.549867 -45.2846,-9.549867 h -35.1187 -177.44149 c -10.30824,0 -21.16914,-0.996713 -31.42194,0 -16.86711,1.639865 -32.82668,10.587162 -42.20429,24.952719 -11.20007,17.1574 -10.01112,38.70005 -8.62532,58.22301 l 7.18074,101.16145 m 170.26082,390.65385 c 5.02751,-0.76891 9.86088,0.29112 14.78678,0.76984 6.4415,0.62567 12.9846,0.30036 19.4076,0.92418 22.9473,2.23095 45.0998,5.49421 67.4648,11.70652 70.2097,19.50286 133.9223,60.66468 178.985,118.60212 19.7127,25.35011 34.3886,52.50976 47.595,81.32738 11.9219,26.02753 20.7108,56.57705 23.8715,85.02407 6.3121,56.78133 4.1125,115.90073 -16.9402,170.04813 -9.0476,23.2523 -19.3337,45.2476 -32.3461,66.5406 -41.9483,68.6385 -109.8012,120.4939 -185.4542,145.7146 -20.4705,6.8204 -42.281,13.0032 -63.7681,15.0918 -26.7641,2.6062 -54.34605,4.473 -81.32733,1.8484 -59.67951,-5.8039 -116.65488,-27.2447 -166.35146,-60.3764 -23.38624,-15.5908 -44.07297,-35.2757 -62.84388,-56.0697 C 626.24344,1109.7562 619.12453,915.7627 719.54074,786.65549 767.27991,725.27642 836.01356,677.32284 912.38551,660.3513 c 16.47619,-3.66066 33.15107,-6.99693 49.90544,-8.62532 10.09753,-0.98148 20.47232,-0.16266 30.49777,-1.69402 z"
       id="path293"
       sodipodi:nodetypes="ccscccscsccsscscscccscsscscsscsccscsccccccccccccccscccccccccscssccscsccccccscsccsccscccccsccscscscsscscccccccccccscsccccccscsscsccscsssscccccccccccccscscsc" />
  </g>
</svg>
