<?xml version="1.0" encoding="UTF-8" standalone="no"?>
<!-- Created with Inkscape (http://www.inkscape.org/) -->

<svg
   version="1.1"
   id="svg2"
   width="2000"
   height="2000"
   viewBox="0 0 2000 2000"
   sodipodi:docname="search.svg"
   inkscape:version="1.2.1 (9c6d41e, 2022-07-14)"
   inkscape:export-filename="i.png"
   inkscape:export-xdpi="1.92"
   inkscape:export-ydpi="1.92"
   xml:space="preserve"
   xmlns:inkscape="http://www.inkscape.org/namespaces/inkscape"
   xmlns:sodipodi="http://sodipodi.sourceforge.net/DTD/sodipodi-0.dtd"
   xmlns="http://www.w3.org/2000/svg"
   xmlns:svg="http://www.w3.org/2000/svg"><defs
     id="defs6" /><sodipodi:namedview
     id="namedview4"
     pagecolor="#ffffff"
     bordercolor="#666666"
     borderopacity="1.0"
     inkscape:showpageshadow="2"
     inkscape:pageopacity="0.0"
     inkscape:pagecheckerboard="true"
     inkscape:deskcolor="#d1d1d1"
     showgrid="false"
     inkscape:zoom="0.107"
     inkscape:cx="-607.47664"
     inkscape:cy="1785.0467"
     inkscape:window-width="1920"
     inkscape:window-height="1052"
     inkscape:window-x="0"
     inkscape:window-y="0"
     inkscape:window-maximized="1"
     inkscape:current-layer="g8"
     showguides="false" /><g
     inkscape:groupmode="layer"
     inkscape:label="Image"
     id="g8"><path
       id="rect286"
       style="fill:#c6c6c6;stroke:#000000;stroke-width:94.105;paint-order:stroke markers fill;stroke-dasharray:none"
       d="M 368.96134,277.11311 C 254.1683,382.23185 185.46845,528.2463 177.97429,683.03399 c -7.49417,154.78771 46.83134,305.67024 151.02604,419.45451 104.19449,113.7845 249.72329,181.1505 404.57117,187.2784 79.4483,2.2331 156.21645,-10.4085 225.58228,-35.5832 30.99908,-11.3802 60.97942,-25.5232 89.76192,-41.9959 85.5225,92.911 459.5447,499.347 592.4518,647.2187 170.6066,29.5721 209.5668,-6.1046 192.0303,-175.8458 -132.6676,-141.6688 -507.4637,-553.3241 -592.7057,-646.9764 18.9446,-27.2326 35.672,-55.86445 49.7353,-85.75426 32.4611,-68.99186 51.5097,-144.19297 55.2571,-221.58692 7.4943,-154.78791 -46.8313,-305.67006 -151.0262,-419.45454 C 1090.4637,196.00391 944.93429,128.63692 790.08624,122.50911 c -154.84809,-6.12776 -306.33142,49.48535 -421.1249,154.604 z m 111.94572,122.24892 c 82.08369,-75.16571 190.40215,-114.93146 301.12712,-110.54974 110.72496,4.38172 214.78655,52.55207 289.29142,133.9145 74.5047,81.36224 113.3502,189.25112 107.991,299.93279 -5.359,110.68175 -54.4835,215.09001 -136.5671,290.25542 -82.08349,75.1651 -190.40261,114.9314 -301.12707,110.5497 C 630.898,1119.083 526.83792,1070.9121 452.33307,989.55038 377.82809,908.18833 338.98134,800.29911 344.33999,689.61742 349.69865,578.9357 398.82377,474.52774 480.90706,399.36203 Z" /></g></svg>
